<?xml version="1.0" encoding="iso-8859-1"?>
<!-- Uploaded to: SVG Repo, www.svgrepo.com, Generator: SVG Repo Mixer Tools -->
<svg version="1.1" id="Layer_1" xmlns="http://www.w3.org/2000/svg" xmlns:xlink="http://www.w3.org/1999/xlink" 
	 viewBox="0 0 510.961 510.961" xml:space="preserve">
<g transform="translate(1)">
	<path style="fill:#FFA800;" d="M423.535,207.354l-242.526,240.73c-11.677,4.491-24.253,9.881-43.116,1.797
		c29.642,17.067,55.691,20.66,68.267,8.982l256-256C454.076,210.947,440.602,211.846,423.535,207.354"/>
	<g>
		<path style="fill:#FFE100;" d="M407.367,510.961c-35.032,0-62.877-27.846-62.877-62.877c0-15.27-11.677-26.947-26.947-26.947
			c-19.761,0-35.93-16.168-35.93-35.93c0-5.389,3.593-8.982,8.982-8.982c5.389,0,8.982,3.593,8.982,8.982
			c0,9.881,8.084,17.965,17.965,17.965c25.151,0,44.912,19.761,44.912,44.912s19.761,44.912,44.912,44.912
			s44.912-19.761,44.912-44.912s-19.761-44.912-44.912-44.912c-5.389,0-8.982-3.593-8.982-8.982s3.593-8.982,8.982-8.982
			c35.032,0,62.877,27.846,62.877,62.877S442.398,510.961,407.367,510.961z"/>
		<path style="fill:#FFE100;" d="M452.279,133.698l-26.947,21.558c-8.084,8.084-21.558-4.491-49.404-32.337
			s-43.116-56.589-35.93-63.775l22.456-21.558c-27.846-15.27-52.098-18.863-64.674-6.288
			c-19.761,19.761,2.695,73.656,49.404,121.263s74.554,53.895,94.316,34.133C453.177,174.119,467.549,161.544,452.279,133.698"/>
	</g>
	<path style="fill:#FFA800;" d="M456.77,132.8l-6.288,6.288c10.779,24.253-1.797,35.93-13.474,46.709
		c-8.084,8.084-17.067,11.677-27.846,9.881c23.354,10.779,44.014,11.677,53.895,1.797C474.735,185.797,471.142,160.646,456.77,132.8
		"/>
	<path style="fill:#FECC00;" d="M474.735,102.26c-11.677,11.677-45.811-3.593-76.351-34.133s-29.642-48.505-17.965-61.081
		c11.677-11.677,36.828-8.084,67.368,22.456C478.328,60.94,486.412,90.582,474.735,102.26"/>
	<path style="fill:#FFA800;" d="M464.855,60.042c9.881,17.965,10.779,34.133,2.695,42.218
		c-11.677,11.677-44.014-12.575-71.86-40.421v11.677c4.491,6.288,9.881,12.575,16.168,18.863
		c27.846,27.846,59.284,40.421,70.961,28.744C494.497,110.344,485.514,84.295,464.855,60.042"/>
	<g>
		<path style="fill:#FECC00;" d="M410.062,83.397c-27.846-27.846-40.421-59.284-28.744-70.961l-43.116,43.116
			c-8.084,8.084,8.084,36.828,35.93,63.775c27.846,27.846,56.589,43.116,63.775,35.93l43.116-43.116
			C470.244,123.818,437.907,111.242,410.062,83.397"/>
		<path style="fill:#FECC00;" d="M83.998,403.172c-18.863-18.863-23.354-38.625-33.235-56.589l-20.66,20.66
			c-8.084,8.084-9.881,24.253,17.965,52.098s43.116,43.116,51.2,35.93l20.66-20.66C101.963,424.73,102.862,422.035,83.998,403.172"
			/>
	</g>
	<path style="fill:#FFA800;" d="M119.928,430.119l-26.947,29.642c-2.695,2.695-5.389,2.695-8.982,0.898
		c17.067,11.677,30.54,17.067,35.93,11.677l20.66-20.66"/>
	<g>
		<path style="fill:#FFFFFF;" d="M362.455,39.382l-6.288,6.288c-24.253-10.779-35.93,1.796-46.709,13.474
			c-8.084,8.084-11.677,17.067-9.881,27.846c-10.779-23.354-11.677-44.014-1.797-53.895
			C310.356,21.418,334.609,25.011,362.455,39.382"/>
		<path style="fill:#FFFFFF;" d="M436.111,29.502c-17.965-9.881-34.133-10.779-42.218-2.695
			c-11.677,11.677,12.575,44.014,40.421,71.86h-11.677c-6.288-4.491-12.575-9.881-18.863-16.168
			c-27.846-27.846-40.421-59.284-28.744-70.961C385.809-0.14,411.858,8.842,436.111,29.502"/>
		<path style="fill:#FFFFFF;" d="M66.033,367.242L36.391,394.19c-2.695,2.695-2.695,5.389-0.898,8.982
			c-11.677-17.067-17.067-30.54-11.677-35.93l20.66-20.66"/>
	</g>
	<path style="fill:#FFE100;" d="M187.297,443.593l247.018-247.018c-19.761,19.761-42.218,1.796-88.926-45.811
		c-46.709-46.709-69.165-101.502-49.404-121.263L39.086,286.4c4.491-4.491-9.881,61.979,35.93,107.789
		C121.725,440.898,167.535,463.354,187.297,443.593"/>
	<path style="fill:#FFFFFF;" d="M295.086,63.635L53.458,306.161c-4.491,11.677-9.881,24.253-1.796,43.116
		c-17.067-29.642-20.66-55.691-8.982-68.267L299.577,25.909C291.493,33.993,290.595,47.467,295.086,63.635"/>
	<path d="M190.89,469.642c-28.744,0-69.165-21.558-106.891-59.284c-23.354-23.354-42.218-49.404-52.098-73.656
		c-10.779-26.049-9.881-47.607,1.796-60.182l256.898-256l0,0l12.575,12.575c-6.288,6.288-6.288,21.558,1.797,40.421
		c8.982,21.558,26.049,45.811,47.607,68.267c21.558,21.558,45.811,38.625,68.267,47.607c18.863,8.084,34.133,8.084,40.421,1.796
		l12.575,12.575l-256,256C210.651,466.049,201.669,469.642,190.89,469.642z M280.714,54.653L47.17,289.095
		c-6.288,6.288-6.288,21.558,1.796,40.421c8.982,21.558,26.049,45.811,47.607,68.267c44.912,44.912,94.316,63.775,108.688,49.404
		l234.442-234.442c-8.084-0.898-16.168-3.593-25.151-7.186c-24.253-9.881-50.302-27.846-73.656-52.098
		c-23.354-23.354-42.218-49.404-52.098-73.656C284.307,70.821,282.511,62.737,280.714,54.653z"/>
	<path d="M469.346,125.614c-19.761,0-45.81-15.27-65.572-35.032c-26.947-26.947-46.709-65.572-28.744-83.537
		c17.965-17.965,56.589,0.898,83.537,28.744c26.947,26.947,46.709,65.572,28.744,83.537l0,0
		C482.819,122.919,476.532,125.614,469.346,125.614z M394.791,16.926c-2.695,0-4.491,0.898-6.288,1.796
		c-6.288,6.288,2.695,32.337,28.744,58.386s52.098,34.133,58.386,28.744c6.288-6.288-2.695-32.337-28.744-58.386
		C426.23,25.909,404.672,16.926,394.791,16.926z"/>
	<path d="M433.416,166.035c-23.354,0-60.182-35.93-64.674-40.421c-5.389-5.389-55.691-56.589-35.93-76.351l43.116-43.116
		l12.575,12.575c-6.288,6.288,2.695,32.337,28.744,58.386c12.575,12.575,26.049,22.456,38.625,26.947
		c11.677,4.491,17.965,3.593,19.761,1.796l12.575,12.575l0,0l-43.116,42.218C442.398,164.239,437.907,166.035,433.416,166.035z
		 M346.286,60.94c-0.898,5.389,9.881,26.947,35.032,52.098c25.151,25.151,45.811,35.93,52.098,35.032l24.253-24.253
		c-2.695-0.898-5.389-1.796-8.982-2.695c-14.372-5.389-30.54-17.067-44.912-30.54l0,0c-16.168-16.168-28.744-35.93-34.133-52.996
		L346.286,60.94z"/>
	<path d="M446.89,213.642c-9.881,0-20.66-2.695-33.235-8.084c-24.253-9.881-50.302-27.846-73.656-52.098
		c-23.354-23.354-42.218-49.404-52.098-73.656c-10.779-26.049-9.881-47.607,1.797-60.182c14.372-14.372,42.218-12.575,75.453,5.389
		l10.779,5.389l-29.642,29.642c-0.898,5.389,9.881,26.947,35.032,52.098c25.151,25.151,45.811,35.93,52.098,35.032l29.642-29.642
		l5.389,10.779c17.965,33.235,19.761,60.182,5.389,75.453C467.549,210.049,458.567,213.642,446.89,213.642z M316.644,28.604
		c-6.288,0-10.779,1.796-13.474,4.491c-6.288,6.288-6.288,21.558,1.796,40.421c8.982,21.558,26.049,45.811,47.607,68.267
		c21.558,21.558,45.811,38.625,68.267,47.607c18.863,8.084,34.133,8.084,40.421,1.796c7.186-7.186,5.389-23.354-2.695-43.116
		l-13.474,12.575c-19.761,19.761-70.961-29.642-76.351-35.93c-5.389-5.389-55.691-56.589-35.93-76.351l12.575-12.575
		C334.609,31.298,324.728,28.604,316.644,28.604z"/>
	
		<rect x="270.248" y="59.707" transform="matrix(-0.2545 0.9671 -0.9671 -0.2545 475.7921 -107.2381)" width="17.965" height="140.13"/>
	
		<rect x="163.565" y="184.679" transform="matrix(-0.285 0.9585 -0.9585 -0.285 530.4726 248.519)" width="17.964" height="274.856"/>
	
		<rect x="233.919" y="124.896" transform="matrix(-0.8768 0.4808 -0.4808 -0.8768 576.3969 353.6294)" width="17.964" height="251.502"/>
	
		<rect x="309.763" y="58.971" transform="matrix(-0.2225 0.9749 -0.9749 -0.2225 574.1372 -79.4403)" width="17.964" height="260.483"/>
	
		<rect x="301.711" y="158.663" transform="matrix(-0.2425 0.9701 -0.9701 -0.2425 625.3627 5.0925)" width="17.964" height="176.047"/>
	
		<rect x="298.688" y="252.626" transform="matrix(-0.2248 0.9744 -0.9744 -0.2248 669.3825 67.9296)" width="17.965" height="95.214"/>
	
		<rect x="171.079" y="173.242" transform="matrix(-0.8882 0.4595 -0.4595 -0.8882 459.6292 408.895)" width="17.965" height="174.263"/>
	
		<rect x="110.752" y="220.178" transform="matrix(-0.8928 0.4505 -0.4505 -0.8928 348.6823 458.8712)" width="17.965" height="101.504"/>
	
		<rect x="145.021" y="278.82" transform="matrix(-0.2747 0.9615 -0.9615 -0.2747 564.1553 339.5788)" width="17.964" height="207.489"/>
	<path d="M119.928,478.625c-23.354,0-60.182-35.93-64.674-40.421c-5.389-5.389-55.691-56.589-35.93-76.351l29.642-29.642
		l5.389,10.779c9.881,17.965,24.253,36.828,41.319,54.793c17.067,17.067,35.93,31.439,54.793,41.319l10.779,5.389l-29.642,29.642
		C128.911,477.726,124.419,478.625,119.928,478.625z M32.798,373.53c-0.898,5.389,9.881,26.947,35.032,52.098
		s45.811,35.93,52.098,35.032l11.677-11.677c-16.168-9.881-33.235-23.354-48.505-38.625l0,0
		c-15.27-15.27-28.744-31.439-38.625-48.505L32.798,373.53z"/>
	<path d="M398.384,510.961c-35.032,0-62.877-27.846-62.877-62.877c0-15.27-11.677-26.947-26.947-26.947
		c-19.761,0-35.93-16.168-35.93-35.93c0-5.389,3.593-8.982,8.982-8.982s8.982,3.593,8.982,8.982c0,9.881,8.084,17.965,17.965,17.965
		c25.151,0,44.912,19.761,44.912,44.912s19.761,44.912,44.912,44.912c25.151,0,44.912-19.761,44.912-44.912
		s-19.761-44.912-44.912-44.912c-5.389,0-8.982-3.593-8.982-8.982s3.593-8.982,8.982-8.982c35.032,0,62.877,27.846,62.877,62.877
		S433.416,510.961,398.384,510.961z"/>
</g>
</svg>